<?xml version="1.0" standalone="no"?>
<!DOCTYPE svg PUBLIC "-//W3C//DTD SVG 20010904//EN"
 "http://www.w3.org/TR/2001/REC-SVG-20010904/DTD/svg10.dtd">
<svg version="1.0" xmlns="http://www.w3.org/2000/svg"
 width="4498.000000pt" height="4498.000000pt" viewBox="0 0 4498.000000 4498.000000"
 preserveAspectRatio="xMidYMid meet">
<metadata>
Created by potrace 1.14, written by Peter Selinger 2001-2017
</metadata>
<g transform="translate(0.000000,4498.000000) scale(0.100000,-0.100000)"
fill="#000000" stroke="none">
<path d="M22038 44475 c-2 -2 -55 -6 -118 -9 -63 -4 -141 -8 -175 -11 -33 -3
-89 -7 -125 -10 -36 -3 -81 -7 -100 -10 -19 -3 -66 -7 -105 -10 -38 -3 -81 -7
-95 -10 -14 -2 -45 -6 -70 -9 -93 -11 -136 -17 -160 -21 -14 -2 -45 -6 -70
-10 -25 -3 -56 -8 -70 -10 -14 -3 -38 -7 -55 -9 -30 -4 -115 -19 -125 -21 -3
-1 -25 -5 -50 -9 -53 -9 -286 -55 -315 -62 -11 -3 -31 -7 -45 -10 -151 -28
-593 -151 -830 -231 -161 -54 -482 -177 -597 -229 -233 -105 -476 -228 -574
-290 -21 -13 -41 -24 -44 -24 -3 0 -22 -11 -43 -24 -20 -12 -127 -75 -237
-138 -110 -63 -276 -159 -370 -213 -93 -54 -183 -106 -200 -115 -16 -10 -86
-50 -155 -90 -69 -40 -143 -83 -165 -95 -22 -13 -80 -47 -130 -75 -49 -29 -99
-58 -110 -64 -61 -34 -242 -139 -255 -146 -8 -5 -40 -24 -70 -41 -30 -18 -104
-61 -164 -95 -60 -35 -110 -64 -111 -64 -2 0 -39 -21 -82 -46 -43 -26 -94 -56
-113 -67 -19 -11 -125 -71 -235 -135 -301 -174 -576 -332 -615 -354 -19 -11
-72 -42 -118 -69 -45 -27 -87 -49 -91 -49 -5 0 -11 -3 -13 -7 -1 -5 -16 -15
-33 -24 -337 -177 -568 -367 -769 -634 -69 -91 -168 -246 -189 -293 -6 -15
-16 -34 -22 -42 -52 -68 -185 -454 -210 -610 -3 -19 -8 -42 -10 -50 -3 -8 -7
-40 -11 -70 -3 -30 -8 -73 -10 -95 -9 -70 -11 -353 -3 -413 4 -31 10 -81 13
-109 10 -87 43 -242 74 -348 106 -363 297 -683 571 -955 126 -125 153 -149
254 -224 296 -219 660 -369 1022 -421 22 -4 51 -9 65 -12 14 -3 122 -6 240 -8
170 -2 241 1 339 16 354 54 595 144 946 353 66 40 181 107 255 150 74 42 142
81 150 86 12 8 120 69 314 180 17 9 135 77 261 149 246 141 505 272 690 351
11 4 36 15 56 24 146 64 467 179 739 264 123 39 448 124 563 147 10 2 26 6 35
9 9 3 31 8 47 11 67 11 93 17 150 30 33 7 78 16 100 19 22 4 76 13 120 21 44
9 98 17 120 20 22 3 51 7 65 10 14 2 45 7 70 10 25 3 72 10 105 15 33 5 87 12
120 16 33 3 68 8 77 9 9 2 57 7 105 10 48 4 90 8 93 10 3 2 55 6 115 10 61 4
126 9 145 11 171 18 864 25 1160 11 224 -11 372 -21 460 -32 19 -2 67 -7 105
-10 39 -4 122 -13 185 -21 63 -8 129 -16 146 -18 28 -3 72 -10 149 -22 17 -3
41 -7 55 -9 14 -2 39 -6 55 -9 17 -3 71 -12 120 -21 50 -8 104 -18 120 -21 47
-8 253 -53 325 -70 36 -9 74 -18 86 -20 22 -4 164 -41 284 -74 472 -129 1057
-362 1440 -576 73 -40 317 -180 340 -194 24 -16 376 -216 391 -223 8 -4 28
-15 44 -25 17 -10 50 -30 75 -44 25 -14 70 -40 100 -58 30 -18 75 -44 100 -58
54 -30 77 -44 169 -100 215 -131 506 -249 706 -288 11 -2 44 -9 74 -15 160
-33 508 -47 666 -26 33 4 80 10 105 13 38 5 134 24 190 38 121 31 237 67 305
95 91 37 328 162 408 215 261 173 489 401 662 666 49 74 153 274 189 360 39
96 99 280 112 344 47 239 54 297 59 491 4 220 -21 431 -75 635 -39 145 -122
357 -180 463 -6 9 -14 25 -19 35 -62 115 -171 274 -270 392 -162 192 -438 417
-593 483 -16 6 -28 15 -28 19 0 4 -4 8 -8 8 -5 0 -134 73 -288 161 -153 89
-292 169 -309 179 -58 33 -503 289 -790 455 -159 92 -308 177 -330 190 -22 12
-75 43 -118 69 -43 25 -80 46 -82 46 -3 0 -37 19 -77 43 -129 77 -243 143
-258 151 -8 4 -24 12 -35 19 -25 15 -168 98 -215 124 -19 11 -138 80 -265 153
-126 73 -243 141 -260 150 -16 10 -124 72 -240 139 -195 113 -567 305 -695
360 -30 12 -68 29 -85 36 -90 39 -122 52 -255 102 -312 118 -690 233 -1017
308 -157 35 -391 84 -433 90 -14 2 -40 6 -57 9 -18 3 -48 8 -65 11 -18 3 -40
8 -48 10 -8 2 -39 7 -69 10 -30 4 -63 9 -75 11 -12 2 -40 6 -63 9 -24 3 -75
10 -115 15 -40 6 -95 13 -123 15 -27 3 -66 7 -85 10 -74 9 -193 20 -345 30
-55 3 -116 9 -135 12 -40 6 -1036 13 -1042 8z"/>
<path d="M22119 37556 c-2 -2 -67 -6 -144 -10 -160 -6 -252 -12 -345 -22 -36
-3 -85 -8 -110 -10 -61 -4 -211 -21 -270 -29 -19 -2 -53 -7 -75 -10 -131 -16
-353 -50 -455 -70 -41 -8 -91 -17 -110 -20 -19 -3 -42 -8 -50 -10 -8 -2 -28
-7 -45 -9 -47 -8 -216 -45 -259 -57 -22 -6 -46 -12 -55 -14 -182 -36 -644
-178 -930 -284 -241 -90 -652 -278 -832 -381 -108 -62 -113 -65 -364 -210
-269 -155 -286 -165 -343 -197 -23 -13 -93 -54 -155 -90 -62 -36 -137 -79
-167 -96 -30 -16 -67 -38 -82 -49 -14 -10 -28 -18 -31 -18 -3 0 -51 -27 -107
-60 -56 -33 -103 -60 -106 -60 -3 0 -73 -42 -129 -78 -11 -6 -27 -15 -35 -19
-8 -4 -78 -44 -155 -88 -181 -106 -392 -228 -477 -277 -103 -58 -117 -66 -363
-209 -126 -73 -246 -142 -267 -153 -20 -12 -103 -60 -185 -107 -81 -48 -249
-145 -373 -216 -124 -71 -270 -156 -325 -188 -55 -32 -174 -101 -265 -153
-484 -279 -849 -490 -870 -503 -13 -8 -191 -110 -483 -278 -54 -31 -110 -63
-125 -72 -15 -9 -88 -51 -162 -94 -74 -43 -148 -86 -165 -97 -16 -10 -36 -21
-44 -24 -13 -7 -41 -23 -271 -156 -52 -30 -187 -108 -300 -173 -113 -65 -232
-134 -265 -153 -33 -19 -73 -43 -90 -53 -16 -10 -41 -24 -55 -32 -37 -21 -78
-44 -327 -188 -125 -72 -241 -139 -258 -149 -16 -9 -106 -61 -200 -115 -93
-54 -190 -109 -215 -123 -25 -14 -57 -33 -72 -43 -14 -11 -28 -19 -31 -19 -3
0 -54 -29 -114 -64 -59 -34 -259 -150 -443 -256 -184 -106 -371 -214 -415
-240 -44 -26 -102 -59 -130 -75 -42 -23 -134 -78 -318 -190 -64 -39 -293 -199
-392 -274 -97 -73 -295 -229 -305 -241 -3 -3 -34 -29 -70 -59 -36 -30 -75 -64
-87 -75 -11 -12 -54 -50 -95 -86 -83 -74 -427 -415 -508 -505 -92 -101 -132
-147 -200 -225 -36 -41 -67 -77 -70 -80 -3 -3 -32 -39 -65 -80 -33 -41 -68
-84 -78 -95 -37 -40 -336 -443 -424 -570 -112 -162 -224 -338 -337 -525 -47
-80 -91 -152 -96 -160 -6 -8 -23 -40 -40 -70 -16 -30 -44 -80 -61 -110 -71
-125 -204 -384 -292 -570 -47 -101 -197 -438 -197 -444 0 -2 -8 -21 -17 -42
-9 -22 -17 -41 -18 -44 0 -3 -25 -66 -54 -140 -80 -205 -248 -718 -286 -875
-3 -11 -21 -83 -40 -160 -19 -77 -46 -194 -60 -260 -32 -154 -32 -153 -50
-260 -3 -16 -11 -68 -19 -115 -8 -47 -17 -107 -21 -135 -7 -54 -12 -96 -19
-147 -3 -18 -8 -69 -11 -113 -4 -44 -8 -90 -10 -103 -16 -98 -18 -912 -19
-5667 0 -4688 3 -5599 19 -5683 1 -10 6 -53 9 -97 4 -44 9 -91 11 -105 2 -14
7 -50 10 -80 4 -30 9 -62 10 -71 2 -9 6 -40 10 -70 5 -50 18 -128 30 -189 3
-13 7 -42 11 -64 3 -22 7 -43 9 -46 2 -3 6 -23 9 -45 4 -22 18 -92 32 -155 14
-63 27 -121 29 -130 87 -409 345 -1164 547 -1600 17 -36 42 -90 55 -120 77
-169 310 -623 368 -718 6 -9 24 -41 40 -71 17 -30 35 -61 40 -70 6 -9 39 -63
73 -121 180 -300 482 -744 639 -940 7 -8 62 -78 124 -155 61 -77 114 -142 118
-145 4 -3 17 -18 30 -35 12 -16 37 -46 54 -65 18 -20 50 -56 71 -80 178 -205
451 -481 706 -714 102 -93 236 -203 465 -381 36 -28 106 -79 149 -107 10 -7
31 -22 45 -34 66 -52 419 -269 611 -376 19 -11 60 -35 90 -53 30 -18 75 -44
100 -58 43 -23 188 -107 220 -127 8 -5 71 -42 140 -81 69 -40 179 -103 245
-141 66 -39 199 -115 295 -170 96 -55 211 -122 255 -148 44 -26 100 -59 125
-72 25 -14 112 -64 193 -112 82 -47 167 -97 190 -110 101 -57 623 -359 632
-366 6 -4 35 -21 65 -37 74 -41 656 -377 810 -468 30 -18 75 -44 100 -58 48
-26 159 -90 705 -407 541 -313 779 -451 795 -461 27 -16 124 -71 175 -99 28
-15 140 -80 250 -145 110 -64 223 -129 250 -145 28 -15 106 -60 175 -100 69
-40 145 -84 170 -98 25 -13 50 -28 55 -32 6 -4 116 -68 245 -143 129 -74 276
-158 325 -187 50 -29 115 -66 145 -83 30 -16 60 -33 65 -37 6 -4 27 -17 48
-29 20 -12 54 -30 75 -42 20 -12 62 -36 92 -54 68 -41 548 -319 610 -353 25
-14 57 -32 72 -41 35 -21 204 -119 246 -143 43 -24 70 -40 257 -148 88 -51
176 -102 195 -113 19 -11 118 -68 220 -127 258 -150 256 -149 440 -243 397
-203 980 -425 1370 -522 8 -2 71 -18 140 -35 69 -18 132 -34 140 -35 8 -2 56
-12 105 -24 191 -42 535 -105 695 -126 25 -3 56 -8 70 -10 32 -6 82 -12 205
-25 55 -6 118 -12 140 -15 52 -5 154 -15 230 -20 33 -3 103 -8 155 -12 134
-11 1087 -10 1250 1 74 5 151 10 170 11 59 4 174 15 200 20 14 2 57 7 95 10
39 3 81 8 95 10 14 2 50 7 81 10 31 3 65 7 75 9 11 2 42 7 69 10 162 22 446
72 630 112 88 19 171 37 185 40 14 3 86 21 160 40 561 147 1030 321 1480 551
102 52 192 98 200 103 59 36 153 90 156 90 3 0 22 11 44 25 22 14 64 38 92 54
29 16 177 101 328 188 151 88 484 280 740 428 256 148 591 342 746 431 154 89
296 171 315 182 19 10 165 95 324 187 160 92 310 179 335 193 41 22 172 99
210 122 8 5 42 24 75 43 88 50 306 176 670 387 156 90 190 110 258 149 33 18
225 129 397 229 52 30 109 62 125 72 122 69 377 217 407 236 21 13 40 24 42
24 3 0 46 25 97 55 50 30 93 55 94 55 1 0 54 30 116 66 322 188 630 364 635
364 2 0 10 5 17 11 7 5 163 97 347 203 184 106 409 236 500 288 91 53 181 104
200 115 34 20 226 130 528 305 84 49 174 101 200 115 26 14 79 45 117 68 128
76 220 129 250 145 35 19 34 19 365 210 140 81 271 157 291 168 209 117 609
384 735 491 17 14 44 35 59 46 63 45 328 272 455 390 74 69 355 350 416 416
92 100 234 262 313 355 114 136 113 134 146 179 16 22 33 42 36 45 31 27 307
407 446 615 197 295 331 519 525 875 106 196 263 523 363 757 42 98 80 187 85
198 71 160 293 811 335 985 2 8 13 51 25 95 25 94 20 72 63 260 19 83 38 166
41 185 3 19 8 46 11 60 17 86 50 277 60 350 3 25 8 56 10 70 3 22 19 161 30
260 2 19 7 78 12 130 11 125 10 11079 0 11233 -5 65 -10 126 -11 135 -2 9 -7
49 -10 87 -4 39 -9 81 -11 95 -2 14 -6 48 -10 75 -3 28 -8 61 -10 75 -48 300
-67 399 -116 615 -5 22 -12 51 -14 65 -3 14 -8 32 -11 40 -3 8 -8 26 -11 40
-25 136 -183 642 -285 915 -157 422 -401 955 -590 1290 -25 44 -59 105 -75
136 -146 269 -462 752 -690 1058 -126 167 -265 345 -282 361 -3 3 -24 28 -45
55 -22 28 -50 61 -63 75 -13 14 -32 35 -42 48 -161 196 -492 533 -795 807 -6
6 -51 44 -101 85 -49 41 -92 77 -95 80 -23 25 -321 254 -430 331 -225 159
-325 220 -915 559 -16 9 -180 103 -362 209 -183 105 -347 199 -365 210 -18 10
-63 37 -101 59 -37 23 -69 42 -72 42 -2 0 -53 29 -112 63 -131 77 -423 246
-478 277 -22 12 -226 130 -452 261 -227 132 -417 239 -423 239 -5 0 -10 3 -10
8 0 4 -10 12 -23 18 -12 5 -110 61 -217 123 -107 63 -211 122 -230 133 -19 11
-183 106 -365 211 -181 104 -345 198 -362 209 -18 10 -48 27 -65 37 -18 10
-175 101 -348 201 -173 100 -418 242 -545 315 -126 73 -252 145 -280 160 -27
15 -54 31 -60 35 -5 4 -203 119 -440 256 -236 136 -527 304 -645 372 -118 68
-235 136 -260 150 -25 14 -109 63 -188 108 -79 46 -145 84 -148 84 -3 0 -25
14 -49 30 -24 17 -46 30 -48 30 -3 0 -38 19 -79 43 -40 24 -93 55 -118 69 -25
14 -63 35 -85 48 -22 12 -44 26 -50 30 -5 4 -35 21 -65 38 -30 16 -106 59
-168 96 -62 36 -132 77 -155 90 -23 13 -87 49 -142 81 -55 32 -120 69 -145 83
-25 14 -61 35 -80 47 -19 12 -55 33 -80 47 -25 14 -160 92 -300 173 -140 81
-271 156 -290 167 -19 11 -51 29 -70 40 -325 192 -743 381 -1145 518 -82 28
-161 55 -175 60 -37 14 -353 105 -395 114 -5 2 -28 8 -50 14 -22 6 -55 14 -74
17 -19 3 -37 8 -41 10 -3 2 -17 6 -31 9 -13 3 -64 14 -114 25 -148 33 -223 49
-270 57 -16 2 -77 13 -135 24 -129 24 -152 27 -215 35 -27 4 -57 8 -65 10 -8
3 -37 7 -65 10 -27 3 -61 8 -75 10 -14 2 -50 7 -80 10 -30 3 -66 7 -80 10 -31
5 -103 12 -195 20 -38 3 -83 7 -100 9 -16 3 -77 7 -135 11 -58 4 -136 9 -175
12 -84 5 -911 14 -916 9z m1251 -11480 c223 -44 394 -169 503 -368 34 -62 65
-164 73 -241 3 -34 7 -426 8 -871 l1 -809 125 -42 c540 -180 1052 -462 1526
-840 25 -19 26 -19 57 -1 18 10 52 30 77 44 25 14 194 111 375 217 182 105
361 209 398 231 38 21 82 47 99 57 42 25 334 194 387 225 25 13 66 37 91 52
272 161 611 125 841 -88 84 -77 99 -99 221 -312 52 -91 128 -221 168 -290 40
-69 83 -143 95 -165 12 -22 41 -70 63 -108 23 -37 42 -69 42 -71 0 -2 30 -55
66 -117 37 -63 76 -130 87 -149 11 -19 57 -99 103 -178 46 -79 84 -145 84
-147 0 -2 24 -43 54 -92 120 -198 154 -291 160 -448 7 -160 -56 -343 -162
-471 -68 -83 -130 -128 -344 -250 -95 -54 -181 -103 -190 -109 -16 -10 -120
-70 -183 -106 -16 -9 -82 -47 -145 -84 -63 -37 -130 -76 -147 -86 -26 -15
-259 -149 -453 -262 -19 -11 -47 -26 -61 -34 -48 -24 -51 -34 -35 -109 9 -38
20 -96 26 -129 5 -33 12 -69 14 -81 2 -12 7 -45 11 -74 4 -29 8 -60 10 -69 5
-25 16 -121 21 -172 2 -24 7 -84 11 -134 15 -174 8 -774 -11 -870 -2 -11 -7
-51 -11 -90 -4 -38 -10 -88 -14 -110 -16 -91 -15 -94 84 -152 50 -29 96 -56
104 -60 8 -4 75 -42 149 -85 74 -43 136 -78 138 -78 3 0 23 -12 47 -27 23 -15
71 -43 107 -63 36 -20 139 -79 230 -132 313 -181 555 -321 590 -341 277 -156
414 -465 346 -782 -13 -59 -42 -127 -96 -220 -19 -33 -44 -76 -55 -96 -11 -20
-81 -140 -155 -268 -74 -127 -144 -248 -155 -269 -11 -20 -40 -71 -64 -112
-164 -282 -221 -379 -240 -410 -11 -19 -24 -42 -28 -50 -4 -8 -33 -59 -65
-113 -32 -54 -58 -100 -58 -103 0 -2 -16 -28 -35 -58 -19 -30 -35 -57 -35 -60
0 -17 -74 -111 -130 -166 -83 -80 -153 -123 -267 -163 -76 -26 -102 -30 -198
-31 -60 -1 -128 2 -151 6 -72 12 -171 55 -301 131 -71 41 -150 87 -178 102
-27 16 -67 39 -87 52 -21 12 -40 23 -43 23 -3 0 -18 9 -33 19 -25 17 -436 256
-527 306 -22 12 -118 68 -213 124 -95 55 -177 101 -183 101 -5 0 -9 5 -9 10 0
24 -44 6 -93 -37 -196 -175 -480 -392 -639 -488 -131 -79 -264 -158 -308 -182
-71 -40 -317 -163 -324 -163 -3 0 -31 -12 -63 -26 -79 -35 -89 -40 -158 -67
l-60 -23 -1 -895 c-1 -612 -5 -911 -12 -947 -14 -66 -58 -176 -88 -222 -51
-75 -60 -87 -109 -135 -95 -94 -176 -139 -350 -193 -11 -4 -472 -8 -1025 -10
-737 -2 -1024 0 -1075 8 -270 46 -483 243 -561 520 -17 60 -18 127 -20 915
l-2 850 -33 12 c-19 7 -81 28 -139 48 -277 96 -595 243 -845 391 -27 16 -58
34 -67 39 -36 20 -253 159 -258 165 -3 3 -34 26 -70 51 -35 24 -71 49 -80 56
-8 6 -53 41 -99 77 -46 36 -86 64 -90 62 -14 -7 -207 -118 -221 -126 -8 -5
-103 -59 -210 -121 -107 -61 -235 -134 -285 -164 -49 -29 -110 -63 -135 -77
-25 -14 -121 -69 -215 -123 -417 -241 -484 -277 -545 -295 -161 -48 -297 -46
-443 7 -173 62 -299 174 -400 355 -27 48 -132 231 -226 392 -44 77 -214 371
-231 401 -10 17 -109 188 -221 380 -184 317 -268 471 -273 500 -1 5 -5 19 -9
30 -14 43 -19 84 -21 175 -6 198 67 377 209 515 53 51 148 114 305 202 19 11
69 40 110 65 41 24 82 47 90 51 8 4 22 11 30 17 36 23 153 92 216 126 38 20
76 43 85 50 8 8 18 14 21 14 3 0 71 38 151 85 80 46 163 95 185 107 359 206
335 188 318 246 -3 9 -8 33 -11 52 -3 19 -8 42 -10 50 -2 8 -6 31 -9 50 -3 19
-8 46 -10 60 -28 159 -47 323 -62 532 -8 119 -9 522 0 613 3 39 9 102 11 140
3 39 8 81 10 95 2 14 7 50 10 80 10 92 14 124 20 151 5 22 0 29 -47 54 -29 16
-156 89 -282 162 -125 73 -230 133 -231 133 -2 0 -48 27 -103 59 -55 32 -124
72 -154 89 -130 72 -657 377 -693 401 -154 101 -273 287 -302 471 -12 75 -6
211 12 280 15 60 60 162 103 235 9 17 34 59 55 95 21 36 43 74 49 85 26 46
232 402 246 425 9 14 15 27 15 30 -1 3 4 12 10 20 7 8 18 26 26 40 8 14 67
115 131 225 64 110 119 207 123 215 5 8 19 33 32 55 14 22 30 51 37 65 7 14
27 48 45 77 18 29 33 55 33 58 0 4 8 19 19 33 10 15 33 54 51 87 111 203 295
336 510 369 187 29 311 1 520 -120 63 -36 133 -76 155 -88 22 -13 57 -33 77
-44 20 -12 55 -32 77 -46 22 -15 42 -26 45 -26 2 0 55 -30 117 -66 63 -37 249
-144 414 -239 165 -95 331 -191 370 -214 38 -23 72 -41 75 -41 3 0 30 23 60
51 244 225 624 495 930 661 179 98 515 254 606 282 l21 6 0 878 c0 482 3 900
7 927 43 300 291 552 582 591 27 3 50 7 51 8 6 5 1985 -2 2013 -8z"/>
<path d="M22287 22104 c-1 -2 -36 -6 -77 -9 -66 -5 -216 -25 -305 -41 -121
-21 -480 -123 -510 -144 -5 -4 -28 -13 -50 -20 -22 -7 -76 -30 -121 -51 -44
-22 -83 -39 -86 -39 -11 0 -234 -128 -333 -191 -99 -63 -238 -165 -305 -224
-403 -353 -671 -723 -865 -1194 -46 -112 -104 -286 -131 -396 -4 -16 -8 -34
-10 -40 -10 -37 -54 -274 -59 -313 -3 -26 -7 -65 -10 -87 -15 -122 -22 -474
-11 -550 2 -16 7 -66 11 -110 4 -44 9 -89 11 -100 2 -11 6 -37 9 -57 3 -20 9
-56 14 -80 6 -24 13 -59 16 -78 22 -132 117 -425 194 -600 316 -713 914 -1296
1636 -1595 143 -59 369 -132 495 -159 108 -24 203 -41 280 -51 34 -4 138 -17
175 -21 44 -5 403 -4 450 1 22 2 70 6 107 10 37 3 77 8 90 10 13 2 57 9 98 15
41 6 93 16 115 22 22 5 48 12 57 13 75 15 277 75 388 116 508 189 973 525
1314 949 89 112 180 235 202 275 6 11 29 49 51 85 92 150 192 362 256 541 40
110 84 258 92 308 3 19 8 37 10 41 4 7 12 44 21 100 3 19 7 42 9 50 3 8 7 33
10 55 3 22 8 58 12 80 7 45 8 49 18 205 10 142 10 220 1 380 -8 150 -13 205
-20 245 -3 17 -8 47 -11 69 -9 51 -21 113 -41 206 -3 14 -7 34 -9 46 -11 49
-77 259 -109 341 -46 122 -119 280 -179 388 -47 85 -209 338 -231 361 -6 6
-22 26 -36 44 -112 150 -349 390 -514 520 -256 202 -555 374 -824 475 -107 40
-315 105 -385 120 -143 30 -323 60 -437 72 -51 5 -469 11 -473 7z"/>
<path d="M997 23954 c-1 -1 -36 -4 -77 -7 -346 -26 -646 -224 -813 -537 -28
-53 -74 -172 -82 -215 -3 -16 -9 -43 -13 -60 -4 -16 -7 -1094 -7 -2395 l0
-2365 22 -82 c77 -289 253 -514 506 -648 86 -46 177 -80 256 -95 25 -5 57 -12
71 -15 30 -6 245 -6 280 0 240 41 409 125 565 280 87 87 142 159 193 254 33
63 89 235 98 301 3 30 7 847 8 1815 l1 1760 1030 2 c567 1 1041 2 1055 2 l25
1 0 1000 c0 661 -3 1000 -10 1000 -23 2 -3107 5 -3108 4z"/>
<path d="M40865 23930 c-1 -3 -3 -453 -2 -1001 l0 -996 1053 1 c696 1 1054 -2
1055 -9 1 -5 2 -811 3 -1790 l2 -1780 22 -82 c36 -137 85 -242 161 -348 112
-158 299 -298 471 -354 115 -38 124 -40 200 -52 69 -11 271 -8 327 5 61 13
149 40 158 47 5 5 16 9 24 9 23 0 149 67 219 117 68 48 145 121 204 194 85
104 175 297 194 416 3 21 9 43 12 48 4 6 8 1059 9 2340 2 2557 5 2422 -58
2588 -34 89 -108 221 -152 270 -181 206 -351 310 -593 363 -73 16 -207 17
-1692 18 -888 1 -1615 -1 -1617 -4z"/>
<path d="M850 16820 c-19 -5 -51 -11 -70 -14 -60 -9 -179 -54 -257 -96 -250
-135 -425 -361 -498 -644 l-24 -91 0 -2335 c0 -2046 2 -2345 15 -2415 88 -466
478 -800 957 -819 84 -3 243 15 293 34 13 5 24 8 24 6 0 -2 37 11 83 31 45 19
89 37 97 40 42 17 163 106 226 165 165 157 261 341 301 578 3 19 6 830 6 1801
l0 1767 1026 1 c564 0 1040 0 1056 1 l30 0 0 1000 0 1000 -1615 -1 c-888 -1
-1631 -5 -1650 -9z"/>
<path d="M40894 16812 l-32 -3 1 -999 0 -1000 1056 -2 1056 -3 1 -1785 c1
-1381 4 -1796 13 -1835 7 -27 14 -57 16 -65 11 -52 76 -199 118 -265 66 -106
214 -255 305 -309 143 -84 276 -131 422 -151 45 -6 239 -7 248 -1 4 2 28 7 52
11 25 3 77 15 115 27 345 104 617 399 692 751 17 77 18 233 18 2432 0 2254 -1
2353 -19 2425 -97 393 -395 675 -801 759 -27 5 -183 10 -345 11 -696 3 -2888
5 -2916 2z"/>
</g>
</svg>
